<svg width="100" height="100" viewBox="0 0 100 100" fill="none" xmlns="http://www.w3.org/2000/svg">
<path d="M49.9999 8.33331C38.9492 8.33331 28.3512 12.7232 20.5371 20.5372C12.7231 28.3512 8.33325 38.9493 8.33325 50C8.33325 61.0507 12.7231 71.6487 20.5371 79.4628C28.3512 87.2768 38.9492 91.6666 49.9999 91.6666C61.0506 91.6666 71.6487 87.2768 79.4627 79.4628C87.2767 71.6487 91.6666 61.0507 91.6666 50C91.6666 38.9493 87.2767 28.3512 79.4627 20.5372C71.6487 12.7232 61.0506 8.33331 49.9999 8.33331Z" fill="#F27241"/>
<path d="M63.5728 65.3459C60.5603 66.6146 56.327 67.7146 53.2916 65.7459C50.877 64.1792 49.9999 61.3375 49.9999 59.8084V43.75H60.4166V33.3334H49.9999V22.9167H39.5833V59.8063C39.5833 64.1063 41.6708 70.4813 47.5582 74.2979C49.8082 75.7563 53.0228 77.0813 57.277 77.0813C60.2333 77.0813 63.6937 76.4438 67.6791 74.7625L63.5728 65.3459Z" fill="white"/>
</svg>
