<svg width="163" height="156" viewBox="0 0 163 156" fill="none" xmlns="http://www.w3.org/2000/svg">
<path d="M75 17C58.8218 17 43.3062 23.4268 31.8665 34.8665C20.4268 46.3062 14 61.8218 14 78C14 94.1782 20.4268 109.694 31.8665 121.134C43.3062 132.573 58.8218 139 75 139C91.1782 139 106.694 132.573 118.134 121.134C129.573 109.694 136 94.1782 136 78C136 61.8218 129.573 46.3062 118.134 34.8665C106.694 23.4268 91.1782 17 75 17Z" fill="#FFFAF8"/>
<path d="M88.3001 98.4003C84.1184 100.087 78.2421 101.549 74.0286 98.932C70.6769 96.8495 69.4594 93.0721 69.4594 91.0394V69.6934H83.9189V55.8467H69.4594V42H55V91.0367C55 96.7526 57.8977 105.227 66.0701 110.3C69.1934 112.239 73.6556 114 79.5608 114C83.6644 114 88.4678 113.153 94 110.918L88.3001 98.4003Z" fill="#FF8019"/>
</svg>
