<svg width="60" height="58" viewBox="0 0 60 58" fill="none" xmlns="http://www.w3.org/2000/svg">
<path d="M4.00304 0.978699C1.79222 0.978699 0 2.77092 0 4.98174C0 7.19255 1.79222 8.98478 4.00304 8.98478H55.997C58.2078 8.98478 60 7.19255 60 4.98174C60 2.77092 58.2078 0.978699 55.997 0.978699H4.00304ZM4.00304 24.9969C1.79222 24.9969 0 26.7892 0 29C0 31.2108 1.79222 33.003 4.00304 33.003H55.997C58.2078 33.003 60 31.2108 60 29C60 26.7892 58.2078 24.9969 55.997 24.9969H4.00304ZM4.00304 49.0152C1.79222 49.0152 0 50.8074 0 53.0182C0 55.229 1.79222 57.0212 4.00304 57.0212H55.997C58.2078 57.0212 60 55.229 60 53.0182C60 50.8074 58.2078 49.0152 55.997 49.0152H4.00304Z" fill="black"/>
</svg>
